<?xml version="1.0" encoding="UTF-8" standalone="no"?>
<!DOCTYPE svg PUBLIC "-//W3C//DTD SVG 1.1//EN"
 "http://www.w3.org/Graphics/SVG/1.1/DTD/svg11.dtd">
<!-- Generated by graphviz version 2.43.0 (0)
 -->
<!-- Title: %3 Pages: 1 -->
<svg width="912pt" height="154pt"
 viewBox="0.00 0.00 912.00 154.00" xmlns="http://www.w3.org/2000/svg" xmlns:xlink="http://www.w3.org/1999/xlink">
<g id="graph0" class="graph" transform="scale(1 1) rotate(0) translate(4 150)">
<title>%3</title>
<polygon fill="white" stroke="transparent" points="-4,4 -4,-150 908,-150 908,4 -4,4"/>
<!-- 138655250445312 -->
<g id="node1" class="node">
<title>138655250445312</title>
<polygon fill="none" stroke="black" points="254,-27.5 254,-63.5 381,-63.5 381,-27.5 254,-27.5"/>
<text text-anchor="middle" x="266.5" y="-41.8" font-family="Times,serif" font-size="14.00">e</text>
<polyline fill="none" stroke="black" points="279,-27.5 279,-63.5 "/>
<text text-anchor="middle" x="330" y="-41.8" font-family="Times,serif" font-size="14.00">data 6.0000</text>
</g>
<!-- 138655250440032+ -->
<g id="node10" class="node">
<title>138655250440032+</title>
<ellipse fill="none" stroke="black" cx="444" cy="-72.5" rx="27" ry="18"/>
<text text-anchor="middle" x="444" y="-68.8" font-family="Times,serif" font-size="14.00">+</text>
</g>
<!-- 138655250445312&#45;&gt;138655250440032+ -->
<g id="edge5" class="edge">
<title>138655250445312&#45;&gt;138655250440032+</title>
<path fill="none" stroke="black" d="M381.11,-59.08C390.41,-61.1 399.7,-63.11 408.15,-64.94"/>
<polygon fill="black" stroke="black" points="407.46,-68.37 417.98,-67.07 408.95,-61.53 407.46,-68.37"/>
</g>
<!-- 138655250445312* -->
<g id="node2" class="node">
<title>138655250445312*</title>
<ellipse fill="none" stroke="black" cx="191" cy="-45.5" rx="27" ry="18"/>
<text text-anchor="middle" x="191" y="-41.8" font-family="Times,serif" font-size="14.00">*</text>
</g>
<!-- 138655250445312*&#45;&gt;138655250445312 -->
<g id="edge1" class="edge">
<title>138655250445312*&#45;&gt;138655250445312</title>
<path fill="none" stroke="black" d="M218.1,-45.5C225.71,-45.5 234.44,-45.5 243.47,-45.5"/>
<polygon fill="black" stroke="black" points="243.76,-49 253.76,-45.5 243.76,-42 243.76,-49"/>
</g>
<!-- 138655250439168 -->
<g id="node3" class="node">
<title>138655250439168</title>
<polygon fill="none" stroke="black" points="0.5,-55.5 0.5,-91.5 127.5,-91.5 127.5,-55.5 0.5,-55.5"/>
<text text-anchor="middle" x="13" y="-69.8" font-family="Times,serif" font-size="14.00">a</text>
<polyline fill="none" stroke="black" points="25.5,-55.5 25.5,-91.5 "/>
<text text-anchor="middle" x="76.5" y="-69.8" font-family="Times,serif" font-size="14.00">data 2.0000</text>
</g>
<!-- 138655250439168&#45;&gt;138655250445312* -->
<g id="edge9" class="edge">
<title>138655250439168&#45;&gt;138655250445312*</title>
<path fill="none" stroke="black" d="M127.87,-59.42C137.29,-57.31 146.7,-55.2 155.24,-53.29"/>
<polygon fill="black" stroke="black" points="156.18,-56.66 165.18,-51.06 154.65,-49.83 156.18,-56.66"/>
</g>
<!-- 138655250442288 -->
<g id="node4" class="node">
<title>138655250442288</title>
<polygon fill="none" stroke="black" points="507,-109.5 507,-145.5 636,-145.5 636,-109.5 507,-109.5"/>
<text text-anchor="middle" x="518" y="-123.8" font-family="Times,serif" font-size="14.00">f</text>
<polyline fill="none" stroke="black" points="529,-109.5 529,-145.5 "/>
<text text-anchor="middle" x="582.5" y="-123.8" font-family="Times,serif" font-size="14.00">data &#45;2.0000</text>
</g>
<!-- 138655250444592* -->
<g id="node8" class="node">
<title>138655250444592*</title>
<ellipse fill="none" stroke="black" cx="699" cy="-99.5" rx="27" ry="18"/>
<text text-anchor="middle" x="699" y="-95.8" font-family="Times,serif" font-size="14.00">*</text>
</g>
<!-- 138655250442288&#45;&gt;138655250444592* -->
<g id="edge7" class="edge">
<title>138655250442288&#45;&gt;138655250444592*</title>
<path fill="none" stroke="black" d="M636.35,-113.25C645.65,-111.18 654.92,-109.11 663.33,-107.23"/>
<polygon fill="black" stroke="black" points="664.13,-110.64 673.13,-105.05 662.6,-103.81 664.13,-110.64"/>
</g>
<!-- 138655250447952 -->
<g id="node5" class="node">
<title>138655250447952</title>
<polygon fill="none" stroke="black" points="254.5,-82.5 254.5,-118.5 380.5,-118.5 380.5,-82.5 254.5,-82.5"/>
<text text-anchor="middle" x="266.5" y="-96.8" font-family="Times,serif" font-size="14.00">c</text>
<polyline fill="none" stroke="black" points="278.5,-82.5 278.5,-118.5 "/>
<text text-anchor="middle" x="329.5" y="-96.8" font-family="Times,serif" font-size="14.00">data 3.0000</text>
</g>
<!-- 138655250447952&#45;&gt;138655250440032+ -->
<g id="edge6" class="edge">
<title>138655250447952&#45;&gt;138655250440032+</title>
<path fill="none" stroke="black" d="M380.75,-86.5C390.17,-84.38 399.59,-82.26 408.15,-80.34"/>
<polygon fill="black" stroke="black" points="409.12,-83.71 418.1,-78.1 407.58,-76.88 409.12,-83.71"/>
</g>
<!-- 138655250440320 -->
<g id="node6" class="node">
<title>138655250440320</title>
<polygon fill="none" stroke="black" points="0,-0.5 0,-36.5 128,-36.5 128,-0.5 0,-0.5"/>
<text text-anchor="middle" x="13" y="-14.8" font-family="Times,serif" font-size="14.00">b</text>
<polyline fill="none" stroke="black" points="26,-0.5 26,-36.5 "/>
<text text-anchor="middle" x="77" y="-14.8" font-family="Times,serif" font-size="14.00">data 3.0000</text>
</g>
<!-- 138655250440320&#45;&gt;138655250445312* -->
<g id="edge4" class="edge">
<title>138655250440320&#45;&gt;138655250445312*</title>
<path fill="none" stroke="black" d="M128.23,-32.16C137.53,-34.17 146.81,-36.17 155.24,-37.99"/>
<polygon fill="black" stroke="black" points="154.54,-41.42 165.05,-40.11 156.02,-34.58 154.54,-41.42"/>
</g>
<!-- 138655250444592 -->
<g id="node7" class="node">
<title>138655250444592</title>
<polygon fill="none" stroke="black" points="762,-81.5 762,-117.5 904,-117.5 904,-81.5 762,-81.5"/>
<text text-anchor="middle" x="775" y="-95.8" font-family="Times,serif" font-size="14.00">L</text>
<polyline fill="none" stroke="black" points="788,-81.5 788,-117.5 "/>
<text text-anchor="middle" x="846" y="-95.8" font-family="Times,serif" font-size="14.00">data &#45;18.0000</text>
</g>
<!-- 138655250444592*&#45;&gt;138655250444592 -->
<g id="edge2" class="edge">
<title>138655250444592*&#45;&gt;138655250444592</title>
<path fill="none" stroke="black" d="M726.08,-99.5C733.75,-99.5 742.57,-99.5 751.78,-99.5"/>
<polygon fill="black" stroke="black" points="751.89,-103 761.89,-99.5 751.89,-96 751.89,-103"/>
</g>
<!-- 138655250440032 -->
<g id="node9" class="node">
<title>138655250440032</title>
<polygon fill="none" stroke="black" points="507.5,-54.5 507.5,-90.5 635.5,-90.5 635.5,-54.5 507.5,-54.5"/>
<text text-anchor="middle" x="520.5" y="-68.8" font-family="Times,serif" font-size="14.00">d</text>
<polyline fill="none" stroke="black" points="533.5,-54.5 533.5,-90.5 "/>
<text text-anchor="middle" x="584.5" y="-68.8" font-family="Times,serif" font-size="14.00">data 9.0000</text>
</g>
<!-- 138655250440032&#45;&gt;138655250444592* -->
<g id="edge8" class="edge">
<title>138655250440032&#45;&gt;138655250444592*</title>
<path fill="none" stroke="black" d="M635.62,-86.08C645.08,-88.11 654.53,-90.15 663.1,-91.99"/>
<polygon fill="black" stroke="black" points="662.56,-95.46 673.08,-94.14 664.04,-88.61 662.56,-95.46"/>
</g>
<!-- 138655250440032+&#45;&gt;138655250440032 -->
<g id="edge3" class="edge">
<title>138655250440032+&#45;&gt;138655250440032</title>
<path fill="none" stroke="black" d="M471,-72.5C478.81,-72.5 487.78,-72.5 497.08,-72.5"/>
<polygon fill="black" stroke="black" points="497.25,-76 507.25,-72.5 497.25,-69 497.25,-76"/>
</g>
</g>
</svg>
